<?xml version="1.0" encoding="utf-8"?>
<svg version="1.1" xmlns:xlink="http://www.w3.org/1999/xlink" width="12px" height="12px" viewBox="185 345  12 12" xmlns="http://www.w3.org/2000/svg">
  <path d="M 191 345  C 194.36 345  197 347.64  197 351  C 197 354.36  194.36 357  191 357  C 187.64 357  185 354.36  185 351  C 185 347.64  187.64 345  191 345  Z " fill-rule="nonzero" fill="#ffffff" stroke="none" />
  <path d="M 191 345.5  C 194.08 345.5  196.5 347.92  196.5 351  C 196.5 354.08  194.08 356.5  191 356.5  C 187.92 356.5  185.5 354.08  185.5 351  C 185.5 347.92  187.92 345.5  191 345.5  Z " stroke-width="1" stroke="#797979" fill="none" />
  <path d="M 191 354  C 189.32 354  188 352.68  188 351  C 188 349.32  189.32 348  191 348  C 192.68 348  194 349.32  194 351  C 194 352.68  192.68 354  191 354  " fill-rule="nonzero" fill="#797979" stroke="none" />
</svg>