<?xml version="1.0" encoding="utf-8"?>
<svg version="1.1" xmlns:xlink="http://www.w3.org/1999/xlink" width="12px" height="12px" viewBox="185 148  12 12" xmlns="http://www.w3.org/2000/svg">
  <path d="M 191 148  C 194.36 148  197 150.64  197 154  C 197 157.36  194.36 160  191 160  C 187.64 160  185 157.36  185 154  C 185 150.64  187.64 148  191 148  Z " fill-rule="nonzero" fill="#ffffff" stroke="none" />
  <path d="M 191 148.5  C 194.08 148.5  196.5 150.92  196.5 154  C 196.5 157.08  194.08 159.5  191 159.5  C 187.92 159.5  185.5 157.08  185.5 154  C 185.5 150.92  187.92 148.5  191 148.5  Z " stroke-width="1" stroke="#797979" fill="none" />
  <path d="M 191 157  C 189.32 157  188 155.68  188 154  C 188 152.32  189.32 151  191 151  C 192.68 151  194 152.32  194 154  C 194 155.68  192.68 157  191 157  " fill-rule="nonzero" fill="#797979" stroke="none" />
</svg>