<?xml version="1.0" encoding="utf-8"?>
<svg version="1.1" xmlns:xlink="http://www.w3.org/1999/xlink" width="12px" height="12px" viewBox="295 148  12 12" xmlns="http://www.w3.org/2000/svg">
  <path d="M 301 148  C 304.36 148  307 150.64  307 154  C 307 157.36  304.36 160  301 160  C 297.64 160  295 157.36  295 154  C 295 150.64  297.64 148  301 148  Z " fill-rule="nonzero" fill="#ffffff" stroke="none" />
  <path d="M 301 148.5  C 304.08 148.5  306.5 150.92  306.5 154  C 306.5 157.08  304.08 159.5  301 159.5  C 297.92 159.5  295.5 157.08  295.5 154  C 295.5 150.92  297.92 148.5  301 148.5  Z " stroke-width="1" stroke="#797979" fill="none" />
  <path d="M 301 157  C 299.32 157  298 155.68  298 154  C 298 152.32  299.32 151  301 151  C 302.68 151  304 152.32  304 154  C 304 155.68  302.68 157  301 157  " fill-rule="nonzero" fill="#797979" stroke="none" />
</svg>