<?xml version="1.0" encoding="utf-8"?>
<svg version="1.1" xmlns:xlink="http://www.w3.org/1999/xlink" width="15px" height="15px" xmlns="http://www.w3.org/2000/svg">
  <g transform="matrix(1 0 0 1 -80 -6 )">
    <path d="M 80 6  L 95 6  L 95 21  L 80 21  L 80 6  " fill-rule="nonzero" fill="#cccccc" stroke="none" />
    <path d="M 81 7  L 94 7  L 94 20  L 81 20  L 81 7  " fill-rule="nonzero" fill="#ffffff" stroke="none" />
    <path d="M 88.925 10.5  C 88.295 10.5  87.8 10.005  87.8 9.375  C 87.8 8.745  88.295 8.25  88.925 8.25  C 89.555 8.25  90.05 8.745  90.05 9.375  C 90.05 10.005  89.555 10.5  88.925 10.5  " fill-rule="nonzero" fill="#cccccc" stroke="none" />
    <path d="M 82 20  L 82 13.4  L 85 10.4  L 89.2 12.8  L 91.6 12.2  L 94 12.8  L 94 20  L 82 20  " fill-rule="nonzero" fill="#169bd5" stroke="none" />
  </g>
</svg>