<?xml version="1.0" encoding="utf-8"?>
<svg version="1.1" xmlns:xlink="http://www.w3.org/1999/xlink" width="12px" height="12px" viewBox="185 437  12 12" xmlns="http://www.w3.org/2000/svg">
  <path d="M 191 437  C 194.36 437  197 439.64  197 443  C 197 446.36  194.36 449  191 449  C 187.64 449  185 446.36  185 443  C 185 439.64  187.64 437  191 437  Z " fill-rule="nonzero" fill="#ffffff" stroke="none" />
  <path d="M 191 437.5  C 194.08 437.5  196.5 439.92  196.5 443  C 196.5 446.08  194.08 448.5  191 448.5  C 187.92 448.5  185.5 446.08  185.5 443  C 185.5 439.92  187.92 437.5  191 437.5  Z " stroke-width="1" stroke="#797979" fill="none" />
  <path d="M 191 446  C 189.32 446  188 444.68  188 443  C 188 441.32  189.32 440  191 440  C 192.68 440  194 441.32  194 443  C 194 444.68  192.68 446  191 446  " fill-rule="nonzero" fill="#797979" stroke="none" />
</svg>