<?xml version="1.0" encoding="utf-8"?>
<svg version="1.1" xmlns:xlink="http://www.w3.org/1999/xlink" width="12px" height="12px" viewBox="295 437  12 12" xmlns="http://www.w3.org/2000/svg">
  <path d="M 301 437  C 304.36 437  307 439.64  307 443  C 307 446.36  304.36 449  301 449  C 297.64 449  295 446.36  295 443  C 295 439.64  297.64 437  301 437  Z " fill-rule="nonzero" fill="#ffffff" stroke="none" />
  <path d="M 301 437.5  C 304.08 437.5  306.5 439.92  306.5 443  C 306.5 446.08  304.08 448.5  301 448.5  C 297.92 448.5  295.5 446.08  295.5 443  C 295.5 439.92  297.92 437.5  301 437.5  Z " stroke-width="1" stroke="#797979" fill="none" />
  <path d="M 301 446  C 299.32 446  298 444.68  298 443  C 298 441.32  299.32 440  301 440  C 302.68 440  304 441.32  304 443  C 304 444.68  302.68 446  301 446  " fill-rule="nonzero" fill="#797979" stroke="none" />
</svg>