<?xml version="1.0" encoding="utf-8"?>
<svg version="1.1" xmlns:xlink="http://www.w3.org/1999/xlink" width="110px" height="60px" xmlns="http://www.w3.org/2000/svg">
  <g transform="matrix(1 0 0 1 -106 -10 )">
    <path d="M 106 10  L 216 10  L 216 70  L 106 70  L 106 10  " fill-rule="nonzero" fill="#cccccc" stroke="none" />
    <path d="M 110 14  L 212 14  L 212 66  L 110 66  L 110 14  " fill-rule="nonzero" fill="#ffffff" stroke="none" />
    <path d="M 167.7 28  C 165.18 28  163.2 26.02  163.2 23.5  C 163.2 20.98  165.18 19  167.7 19  C 170.22 19  172.2 20.98  172.2 23.5  C 172.2 26.02  170.22 28  167.7 28  " fill-rule="nonzero" fill="#cccccc" stroke="none" />
    <path d="M 112 65  L 112 38.05  L 136.75 25.8  L 171.4 48.9636363636364  L 191.2 33.15  L 211 48.9636363636364  L 211 65  L 112 65  " fill-rule="nonzero" fill="#169bd5" stroke="none" />
  </g>
</svg>