<?xml version="1.0" encoding="utf-8"?>
<svg version="1.1" xmlns:xlink="http://www.w3.org/1999/xlink" width="12px" height="12px" viewBox="750 441  12 12" xmlns="http://www.w3.org/2000/svg">
  <path d="M 756 441  C 759.36 441  762 443.64  762 447  C 762 450.36  759.36 453  756 453  C 752.64 453  750 450.36  750 447  C 750 443.64  752.64 441  756 441  Z " fill-rule="nonzero" fill="#ffffff" stroke="none" />
  <path d="M 756 441.5  C 759.08 441.5  761.5 443.92  761.5 447  C 761.5 450.08  759.08 452.5  756 452.5  C 752.92 452.5  750.5 450.08  750.5 447  C 750.5 443.92  752.92 441.5  756 441.5  Z " stroke-width="1" stroke="#797979" fill="none" />
  <path d="M 756 450  C 754.32 450  753 448.68  753 447  C 753 445.32  754.32 444  756 444  C 757.68 444  759 445.32  759 447  C 759 448.68  757.68 450  756 450  " fill-rule="nonzero" fill="#797979" stroke="none" />
</svg>