<?xml version="1.0" encoding="utf-8"?>
<svg version="1.1" xmlns:xlink="http://www.w3.org/1999/xlink" width="150px" height="80px" xmlns="http://www.w3.org/2000/svg">
  <g transform="matrix(1 0 0 1 -15 -10 )">
    <path d="M 15 10  L 165 10  L 165 90  L 15 90  L 15 10  " fill-rule="nonzero" fill="#cccccc" stroke="none" />
    <path d="M 21 16  L 159 16  L 159 84  L 21 84  L 21 16  " fill-rule="nonzero" fill="#ffffff" stroke="none" />
    <path d="M 99 34  C 95.64 34  93 31.36  93 28  C 93 24.64  95.64 22  99 22  C 102.36 22  105 24.64  105 28  C 105 31.36  102.36 34  99 34  " fill-rule="nonzero" fill="#cccccc" stroke="none" />
    <path d="M 23 82  L 23 46.8  L 56.5 30.8  L 103.4 61.52  L 130.2 40.4  L 157 61.52  L 157 82  L 23 82  " fill-rule="nonzero" fill="#169bd5" stroke="none" />
  </g>
</svg>