<?xml version="1.0" encoding="utf-8"?>
<svg version="1.1" xmlns:xlink="http://www.w3.org/1999/xlink" width="12px" height="12px" viewBox="295 435  12 12" xmlns="http://www.w3.org/2000/svg">
  <path d="M 301 435  C 304.36 435  307 437.64  307 441  C 307 444.36  304.36 447  301 447  C 297.64 447  295 444.36  295 441  C 295 437.64  297.64 435  301 435  Z " fill-rule="nonzero" fill="#ffffff" stroke="none" />
  <path d="M 301 435.5  C 304.08 435.5  306.5 437.92  306.5 441  C 306.5 444.08  304.08 446.5  301 446.5  C 297.92 446.5  295.5 444.08  295.5 441  C 295.5 437.92  297.92 435.5  301 435.5  Z " stroke-width="1" stroke="#797979" fill="none" />
  <path d="M 301 444  C 299.32 444  298 442.68  298 441  C 298 439.32  299.32 438  301 438  C 302.68 438  304 439.32  304 441  C 304 442.68  302.68 444  301 444  " fill-rule="nonzero" fill="#797979" stroke="none" />
</svg>