<?xml version="1.0" encoding="utf-8"?>
<svg version="1.1" xmlns:xlink="http://www.w3.org/1999/xlink" width="60px" height="60px" xmlns="http://www.w3.org/2000/svg">
  <g transform="matrix(1 0 0 1 -70 -10 )">
    <path d="M 70 10  L 130 10  L 130 70  L 70 70  L 70 10  " fill-rule="nonzero" fill="#cccccc" stroke="none" />
    <path d="M 74 14  L 126 14  L 126 66  L 74 66  L 74 14  " fill-rule="nonzero" fill="#ffffff" stroke="none" />
    <path d="M 105.7 28  C 103.18 28  101.2 26.02  101.2 23.5  C 101.2 20.98  103.18 19  105.7 19  C 108.22 19  110.2 20.98  110.2 23.5  C 110.2 26.02  108.22 28  105.7 28  " fill-rule="nonzero" fill="#cccccc" stroke="none" />
    <path d="M 76 65  L 76 38.05  L 88.25 25.8  L 105.4 35.6  L 115.2 33.15  L 125 35.6  L 125 65  L 76 65  " fill-rule="nonzero" fill="#169bd5" stroke="none" />
  </g>
</svg>