<?xml version="1.0" encoding="utf-8"?>
<svg version="1.1" xmlns:xlink="http://www.w3.org/1999/xlink" width="12px" height="12px" viewBox="324 163  12 12" xmlns="http://www.w3.org/2000/svg">
  <path d="M 330 163  C 333.36 163  336 165.64  336 169  C 336 172.36  333.36 175  330 175  C 326.64 175  324 172.36  324 169  C 324 165.64  326.64 163  330 163  Z " fill-rule="nonzero" fill="#ffffff" stroke="none" />
  <path d="M 330 163.5  C 333.08 163.5  335.5 165.92  335.5 169  C 335.5 172.08  333.08 174.5  330 174.5  C 326.92 174.5  324.5 172.08  324.5 169  C 324.5 165.92  326.92 163.5  330 163.5  Z " stroke-width="1" stroke="#797979" fill="none" />
  <path d="M 330 172  C 328.32 172  327 170.68  327 169  C 327 167.32  328.32 166  330 166  C 331.68 166  333 167.32  333 169  C 333 170.68  331.68 172  330 172  " fill-rule="nonzero" fill="#797979" stroke="none" />
</svg>