<?xml version="1.0" encoding="utf-8"?>
<svg version="1.1" xmlns:xlink="http://www.w3.org/1999/xlink" width="12px" height="12px" viewBox="180 163  12 12" xmlns="http://www.w3.org/2000/svg">
  <path d="M 186 163  C 189.36 163  192 165.64  192 169  C 192 172.36  189.36 175  186 175  C 182.64 175  180 172.36  180 169  C 180 165.64  182.64 163  186 163  Z " fill-rule="nonzero" fill="#ffffff" stroke="none" />
  <path d="M 186 163.5  C 189.08 163.5  191.5 165.92  191.5 169  C 191.5 172.08  189.08 174.5  186 174.5  C 182.92 174.5  180.5 172.08  180.5 169  C 180.5 165.92  182.92 163.5  186 163.5  Z " stroke-width="1" stroke="#797979" fill="none" />
  <path d="M 186 172  C 184.32 172  183 170.68  183 169  C 183 167.32  184.32 166  186 166  C 187.68 166  189 167.32  189 169  C 189 170.68  187.68 172  186 172  " fill-rule="nonzero" fill="#797979" stroke="none" />
</svg>