<?xml version="1.0" encoding="utf-8"?>
<svg version="1.1" xmlns:xlink="http://www.w3.org/1999/xlink" width="12px" height="12px" viewBox="295 475  12 12" xmlns="http://www.w3.org/2000/svg">
  <path d="M 301 475  C 304.36 475  307 477.64  307 481  C 307 484.36  304.36 487  301 487  C 297.64 487  295 484.36  295 481  C 295 477.64  297.64 475  301 475  Z " fill-rule="nonzero" fill="#ffffff" stroke="none" />
  <path d="M 301 475.5  C 304.08 475.5  306.5 477.92  306.5 481  C 306.5 484.08  304.08 486.5  301 486.5  C 297.92 486.5  295.5 484.08  295.5 481  C 295.5 477.92  297.92 475.5  301 475.5  Z " stroke-width="1" stroke="#797979" fill="none" />
  <path d="M 301 484  C 299.32 484  298 482.68  298 481  C 298 479.32  299.32 478  301 478  C 302.68 478  304 479.32  304 481  C 304 482.68  302.68 484  301 484  " fill-rule="nonzero" fill="#797979" stroke="none" />
</svg>